<?xml version="1.0" encoding="UTF-8"?>
<svg viewBox="0 0 1240 620" class="arch__svg" xmlns="http://www.w3.org/2000/svg">
  <rect x="0" y="0" width="1240" height="620" fill="#0a0a0a"/><defs><pattern id="grid" width="40" height="40" patternUnits="userSpaceOnUse"><path d="M 40 0 L 0 0 0 40" fill="none" stroke="#ffffff0a" stroke-width="0.5"></path></pattern><marker id="arr" viewBox="0 0 10 10" refX="8" refY="5" markerWidth="6" markerHeight="6" orient="auto-start-reverse"><path d="M 0 0 L 10 5 L 0 10 z" fill="#999999"></path></marker></defs><rect width="1240" height="620" fill="url(#grid)"></rect><text x="12" y="30" font-family="'JetBrains Mono', ui-monospace, monospace" font-size="9" fill="#5e5e5e" style="letter-spacing: 0.12em;">01 · CLIENTS</text><text x="12" y="152" font-family="'JetBrains Mono', ui-monospace, monospace" font-size="9" fill="#5e5e5e" style="letter-spacing: 0.12em;">02 · SURFACES</text><text x="12" y="280" font-family="'JetBrains Mono', ui-monospace, monospace" font-size="9" fill="#5e5e5e" style="letter-spacing: 0.12em;">03 · AUTHZ</text><text x="12" y="360" font-family="'JetBrains Mono', ui-monospace, monospace" font-size="9" fill="#5e5e5e" style="letter-spacing: 0.12em;">04 · LOG</text><text x="12" y="500" font-family="'JetBrains Mono', ui-monospace, monospace" font-size="9" fill="#5e5e5e" style="letter-spacing: 0.12em;">05 · VIEWS</text><g><rect x="110" y="40" width="150" height="52" fill="#111111" stroke="#999999" stroke-width="1" rx="2"></rect><g transform="translate(110 40)" stroke="#999999" stroke-width="1"><line x1="0" y1="0" x2="6" y2="0"></line><line x1="0" y1="0" x2="0" y2="6"></line></g><g transform="translate(260 40)" stroke="#999999" stroke-width="1"><line x1="-6" y1="0" x2="0" y2="0"></line><line x1="0" y1="0" x2="0" y2="6"></line></g><g transform="translate(110 92)" stroke="#999999" stroke-width="1"><line x1="0" y1="0" x2="6" y2="0"></line><line x1="0" y1="-6" x2="0" y2="0"></line></g><g transform="translate(260 92)" stroke="#999999" stroke-width="1"><line x1="-6" y1="0" x2="0" y2="0"></line><line x1="0" y1="-6" x2="0" y2="0"></line></g><text x="252" y="54" text-anchor="end" font-family="'JetBrains Mono', ui-monospace, monospace" font-size="9" fill="#5e5e5e" style="letter-spacing: 0.08em;">MCP</text><text x="185" y="64" text-anchor="middle" font-family="'JetBrains Mono', ui-monospace, monospace" font-size="13" font-weight="600" fill="#e8e8e8">claude desktop</text></g><g><rect x="290" y="40" width="150" height="52" fill="#111111" stroke="#999999" stroke-width="1" rx="2"></rect><g transform="translate(290 40)" stroke="#999999" stroke-width="1"><line x1="0" y1="0" x2="6" y2="0"></line><line x1="0" y1="0" x2="0" y2="6"></line></g><g transform="translate(440 40)" stroke="#999999" stroke-width="1"><line x1="-6" y1="0" x2="0" y2="0"></line><line x1="0" y1="0" x2="0" y2="6"></line></g><g transform="translate(290 92)" stroke="#999999" stroke-width="1"><line x1="0" y1="0" x2="6" y2="0"></line><line x1="0" y1="-6" x2="0" y2="0"></line></g><g transform="translate(440 92)" stroke="#999999" stroke-width="1"><line x1="-6" y1="0" x2="0" y2="0"></line><line x1="0" y1="-6" x2="0" y2="0"></line></g><text x="432" y="54" text-anchor="end" font-family="'JetBrains Mono', ui-monospace, monospace" font-size="9" fill="#5e5e5e" style="letter-spacing: 0.08em;">MCP</text><text x="365" y="64" text-anchor="middle" font-family="'JetBrains Mono', ui-monospace, monospace" font-size="13" font-weight="600" fill="#e8e8e8">cursor</text></g><g><rect x="470" y="40" width="150" height="52" fill="#111111" stroke="#999999" stroke-width="1" rx="2"></rect><g transform="translate(470 40)" stroke="#999999" stroke-width="1"><line x1="0" y1="0" x2="6" y2="0"></line><line x1="0" y1="0" x2="0" y2="6"></line></g><g transform="translate(620 40)" stroke="#999999" stroke-width="1"><line x1="-6" y1="0" x2="0" y2="0"></line><line x1="0" y1="0" x2="0" y2="6"></line></g><g transform="translate(470 92)" stroke="#999999" stroke-width="1"><line x1="0" y1="0" x2="6" y2="0"></line><line x1="0" y1="-6" x2="0" y2="0"></line></g><g transform="translate(620 92)" stroke="#999999" stroke-width="1"><line x1="-6" y1="0" x2="0" y2="0"></line><line x1="0" y1="-6" x2="0" y2="0"></line></g><text x="612" y="54" text-anchor="end" font-family="'JetBrains Mono', ui-monospace, monospace" font-size="9" fill="#5e5e5e" style="letter-spacing: 0.08em;">WIRE</text><text x="545" y="64" text-anchor="middle" font-family="'JetBrains Mono', ui-monospace, monospace" font-size="13" font-weight="600" fill="#e8e8e8">custom agent</text></g><g><rect x="650" y="40" width="150" height="52" fill="#111111" stroke="#999999" stroke-width="1" rx="2"></rect><g transform="translate(650 40)" stroke="#999999" stroke-width="1"><line x1="0" y1="0" x2="6" y2="0"></line><line x1="0" y1="0" x2="0" y2="6"></line></g><g transform="translate(800 40)" stroke="#999999" stroke-width="1"><line x1="-6" y1="0" x2="0" y2="0"></line><line x1="0" y1="0" x2="0" y2="6"></line></g><g transform="translate(650 92)" stroke="#999999" stroke-width="1"><line x1="0" y1="0" x2="6" y2="0"></line><line x1="0" y1="-6" x2="0" y2="0"></line></g><g transform="translate(800 92)" stroke="#999999" stroke-width="1"><line x1="-6" y1="0" x2="0" y2="0"></line><line x1="0" y1="-6" x2="0" y2="0"></line></g><text x="792" y="54" text-anchor="end" font-family="'JetBrains Mono', ui-monospace, monospace" font-size="9" fill="#5e5e5e" style="letter-spacing: 0.08em;">DIR</text><text x="725" y="64" text-anchor="middle" font-family="'JetBrains Mono', ui-monospace, monospace" font-size="13" font-weight="600" fill="#e8e8e8">ctxd cli</text></g><g><rect x="830" y="40" width="150" height="52" fill="#111111" stroke="#999999" stroke-width="1" rx="2"></rect><g transform="translate(830 40)" stroke="#999999" stroke-width="1"><line x1="0" y1="0" x2="6" y2="0"></line><line x1="0" y1="0" x2="0" y2="6"></line></g><g transform="translate(980 40)" stroke="#999999" stroke-width="1"><line x1="-6" y1="0" x2="0" y2="0"></line><line x1="0" y1="0" x2="0" y2="6"></line></g><g transform="translate(830 92)" stroke="#999999" stroke-width="1"><line x1="0" y1="0" x2="6" y2="0"></line><line x1="0" y1="-6" x2="0" y2="0"></line></g><g transform="translate(980 92)" stroke="#999999" stroke-width="1"><line x1="-6" y1="0" x2="0" y2="0"></line><line x1="0" y1="-6" x2="0" y2="0"></line></g><text x="972" y="54" text-anchor="end" font-family="'JetBrains Mono', ui-monospace, monospace" font-size="9" fill="#5e5e5e" style="letter-spacing: 0.08em;">HTTP</text><text x="905" y="64" text-anchor="middle" font-family="'JetBrains Mono', ui-monospace, monospace" font-size="13" font-weight="600" fill="#e8e8e8">admin ui</text></g><line x1="185" y1="92" x2="185" y2="140" stroke="#5e5e5e" stroke-width="1" marker-end="url(#arr)"></line><line x1="365" y1="92" x2="365" y2="140" stroke="#5e5e5e" stroke-width="1" marker-end="url(#arr)"></line><line x1="545" y1="92" x2="545" y2="140" stroke="#5e5e5e" stroke-width="1" marker-end="url(#arr)"></line><line x1="725" y1="92" x2="725" y2="140" stroke="#5e5e5e" stroke-width="1" marker-end="url(#arr)"></line><line x1="905" y1="92" x2="905" y2="140" stroke="#5e5e5e" stroke-width="1" marker-end="url(#arr)"></line><g><rect x="110" y="140" width="330" height="70" fill="#111111" stroke="#999999" stroke-width="1" rx="2"></rect><g transform="translate(110 140)" stroke="#999999" stroke-width="1"><line x1="0" y1="0" x2="6" y2="0"></line><line x1="0" y1="0" x2="0" y2="6"></line></g><g transform="translate(440 140)" stroke="#999999" stroke-width="1"><line x1="-6" y1="0" x2="0" y2="0"></line><line x1="0" y1="0" x2="0" y2="6"></line></g><g transform="translate(110 210)" stroke="#999999" stroke-width="1"><line x1="0" y1="0" x2="6" y2="0"></line><line x1="0" y1="-6" x2="0" y2="0"></line></g><g transform="translate(440 210)" stroke="#999999" stroke-width="1"><line x1="-6" y1="0" x2="0" y2="0"></line><line x1="0" y1="-6" x2="0" y2="0"></line></g><text x="120" y="158" font-family="'JetBrains Mono', ui-monospace, monospace" font-size="11" fill="#ffffff" font-weight="600">◆</text><text x="275" y="173" text-anchor="middle" font-family="'JetBrains Mono', ui-monospace, monospace" font-size="13" font-weight="600" fill="#e8e8e8">MCP server · stdio</text><text x="275" y="190" text-anchor="middle" font-family="'JetBrains Mono', ui-monospace, monospace" font-size="10.5" fill="#999999">5 tools · rmcp</text></g><g><rect x="470" y="140" width="300" height="70" fill="#111111" stroke="#999999" stroke-width="1" rx="2"></rect><g transform="translate(470 140)" stroke="#999999" stroke-width="1"><line x1="0" y1="0" x2="6" y2="0"></line><line x1="0" y1="0" x2="0" y2="6"></line></g><g transform="translate(770 140)" stroke="#999999" stroke-width="1"><line x1="-6" y1="0" x2="0" y2="0"></line><line x1="0" y1="0" x2="0" y2="6"></line></g><g transform="translate(470 210)" stroke="#999999" stroke-width="1"><line x1="0" y1="0" x2="6" y2="0"></line><line x1="0" y1="-6" x2="0" y2="0"></line></g><g transform="translate(770 210)" stroke="#999999" stroke-width="1"><line x1="-6" y1="0" x2="0" y2="0"></line><line x1="0" y1="-6" x2="0" y2="0"></line></g><text x="480" y="158" font-family="'JetBrains Mono', ui-monospace, monospace" font-size="11" fill="#ffffff" font-weight="600">◆</text><text x="620" y="173" text-anchor="middle" font-family="'JetBrains Mono', ui-monospace, monospace" font-size="13" font-weight="600" fill="#e8e8e8">wire · :7778</text><text x="620" y="190" text-anchor="middle" font-family="'JetBrains Mono', ui-monospace, monospace" font-size="10.5" fill="#999999">msgpack/tcp · 6 verbs · length-prefixed</text></g><g><rect x="800" y="140" width="255" height="70" fill="#111111" stroke="#999999" stroke-width="1" rx="2"></rect><g transform="translate(800 140)" stroke="#999999" stroke-width="1"><line x1="0" y1="0" x2="6" y2="0"></line><line x1="0" y1="0" x2="0" y2="6"></line></g><g transform="translate(1055 140)" stroke="#999999" stroke-width="1"><line x1="-6" y1="0" x2="0" y2="0"></line><line x1="0" y1="0" x2="0" y2="6"></line></g><g transform="translate(800 210)" stroke="#999999" stroke-width="1"><line x1="0" y1="0" x2="6" y2="0"></line><line x1="0" y1="-6" x2="0" y2="0"></line></g><g transform="translate(1055 210)" stroke="#999999" stroke-width="1"><line x1="-6" y1="0" x2="0" y2="0"></line><line x1="0" y1="-6" x2="0" y2="0"></line></g><text x="810" y="158" font-family="'JetBrains Mono', ui-monospace, monospace" font-size="11" fill="#ffffff" font-weight="600">◆</text><text x="927.5" y="173" text-anchor="middle" font-family="'JetBrains Mono', ui-monospace, monospace" font-size="13" font-weight="600" fill="#e8e8e8">http admin · :7777</text><text x="927.5" y="190" text-anchor="middle" font-family="'JetBrains Mono', ui-monospace, monospace" font-size="10.5" fill="#999999">axum · 3 routes</text></g><path d="M 275 210 C 275 240, 580 240, 580 270" fill="none" stroke="#5e5e5e" stroke-width="1"></path><path d="M 620 210 C 620 240, 600 240, 600 270" fill="none" stroke="#5e5e5e" stroke-width="1"></path><path d="M 925 210 C 925 240, 620 240, 620 270" fill="none" stroke="#5e5e5e" stroke-width="1"></path><g><rect x="110" y="270" width="945" height="48" fill="#111111" stroke="#ffffff" stroke-width="1.25" rx="2"></rect><g transform="translate(110 270)" stroke="#ffffff" stroke-width="1"><line x1="0" y1="0" x2="6" y2="0"></line><line x1="0" y1="0" x2="0" y2="6"></line></g><g transform="translate(1055 270)" stroke="#ffffff" stroke-width="1"><line x1="-6" y1="0" x2="0" y2="0"></line><line x1="0" y1="0" x2="0" y2="6"></line></g><g transform="translate(110 318)" stroke="#ffffff" stroke-width="1"><line x1="0" y1="0" x2="6" y2="0"></line><line x1="0" y1="-6" x2="0" y2="0"></line></g><g transform="translate(1055 318)" stroke="#ffffff" stroke-width="1"><line x1="-6" y1="0" x2="0" y2="0"></line><line x1="0" y1="-6" x2="0" y2="0"></line></g><text x="1047" y="284" text-anchor="end" font-family="'JetBrains Mono', ui-monospace, monospace" font-size="9" fill="#ffffff" style="letter-spacing: 0.08em;">GATE</text><text x="582.5" y="292" text-anchor="middle" font-family="'JetBrains Mono', ui-monospace, monospace" font-size="13" font-weight="600" fill="#ffffff">capability engine · biscuit-auth · mint  ·  verify  ·  attenuate</text></g><line x1="580" y1="318" x2="580" y2="358" stroke="#ffffff" stroke-width="1.25" marker-end="url(#arr)"></line><g transform="translate(110 358)"><rect width="945" height="100" fill="none" stroke="#999999" stroke-width="1" rx="2"></rect><text x="14" y="20" font-family="'JetBrains Mono', ui-monospace, monospace" font-size="11" font-weight="600" fill="#e8e8e8">event store · sqlite · append-only</text><text x="14" y="36" font-family="'JetBrains Mono', ui-monospace, monospace" font-size="10" fill="#999999">predecessor-hash chain · CloudEvents v1.0 · UUIDv7 · canonical SHA-256</text><g transform="translate(14 50)"><g transform="translate(0 0)"><rect width="46" height="34" fill="#1a1a1a" stroke="#999999" stroke-width="0.75"></rect><text x="23" y="14" text-anchor="middle" font-family="'JetBrains Mono', ui-monospace, monospace" font-size="8" fill="#5e5e5e">e00</text><line x1="6" y1="20" x2="40" y2="20" stroke="#ffffff" stroke-opacity="0.18" stroke-width="2"></line><text x="23" y="29" text-anchor="middle" font-family="'JetBrains Mono', ui-monospace, monospace" font-size="7" fill="#5e5e5e">a0f3…</text></g><g transform="translate(51 0)"><rect width="46" height="34" fill="#1a1a1a" stroke="#999999" stroke-width="0.75"></rect><text x="23" y="14" text-anchor="middle" font-family="'JetBrains Mono', ui-monospace, monospace" font-size="8" fill="#5e5e5e">e01</text><line x1="6" y1="20" x2="40" y2="20" stroke="#ffffff" stroke-opacity="0.22" stroke-width="2"></line><text x="23" y="29" text-anchor="middle" font-family="'JetBrains Mono', ui-monospace, monospace" font-size="7" fill="#5e5e5e">a1f4…</text></g><g transform="translate(102 0)"><rect width="46" height="34" fill="#1a1a1a" stroke="#999999" stroke-width="0.75"></rect><text x="23" y="14" text-anchor="middle" font-family="'JetBrains Mono', ui-monospace, monospace" font-size="8" fill="#5e5e5e">e02</text><line x1="6" y1="20" x2="40" y2="20" stroke="#ffffff" stroke-opacity="0.26" stroke-width="2"></line><text x="23" y="29" text-anchor="middle" font-family="'JetBrains Mono', ui-monospace, monospace" font-size="7" fill="#5e5e5e">a2f5…</text></g><g transform="translate(153 0)"><rect width="46" height="34" fill="#1a1a1a" stroke="#999999" stroke-width="0.75"></rect><text x="23" y="14" text-anchor="middle" font-family="'JetBrains Mono', ui-monospace, monospace" font-size="8" fill="#5e5e5e">e03</text><line x1="6" y1="20" x2="40" y2="20" stroke="#ffffff" stroke-opacity="0.3" stroke-width="2"></line><text x="23" y="29" text-anchor="middle" font-family="'JetBrains Mono', ui-monospace, monospace" font-size="7" fill="#5e5e5e">a3f6…</text></g><g transform="translate(204 0)"><rect width="46" height="34" fill="#1a1a1a" stroke="#999999" stroke-width="0.75"></rect><text x="23" y="14" text-anchor="middle" font-family="'JetBrains Mono', ui-monospace, monospace" font-size="8" fill="#5e5e5e">e04</text><line x1="6" y1="20" x2="40" y2="20" stroke="#ffffff" stroke-opacity="0.33999999999999997" stroke-width="2"></line><text x="23" y="29" text-anchor="middle" font-family="'JetBrains Mono', ui-monospace, monospace" font-size="7" fill="#5e5e5e">a4f7…</text></g><g transform="translate(255 0)"><rect width="46" height="34" fill="#1a1a1a" stroke="#999999" stroke-width="0.75"></rect><text x="23" y="14" text-anchor="middle" font-family="'JetBrains Mono', ui-monospace, monospace" font-size="8" fill="#5e5e5e">e05</text><line x1="6" y1="20" x2="40" y2="20" stroke="#ffffff" stroke-opacity="0.38" stroke-width="2"></line><text x="23" y="29" text-anchor="middle" font-family="'JetBrains Mono', ui-monospace, monospace" font-size="7" fill="#5e5e5e">a5f8…</text></g><g transform="translate(306 0)"><rect width="46" height="34" fill="#1a1a1a" stroke="#999999" stroke-width="0.75"></rect><text x="23" y="14" text-anchor="middle" font-family="'JetBrains Mono', ui-monospace, monospace" font-size="8" fill="#5e5e5e">e06</text><line x1="6" y1="20" x2="40" y2="20" stroke="#ffffff" stroke-opacity="0.42" stroke-width="2"></line><text x="23" y="29" text-anchor="middle" font-family="'JetBrains Mono', ui-monospace, monospace" font-size="7" fill="#5e5e5e">a6f9…</text></g><g transform="translate(357 0)"><rect width="46" height="34" fill="#1a1a1a" stroke="#999999" stroke-width="0.75"></rect><text x="23" y="14" text-anchor="middle" font-family="'JetBrains Mono', ui-monospace, monospace" font-size="8" fill="#5e5e5e">e07</text><line x1="6" y1="20" x2="40" y2="20" stroke="#ffffff" stroke-opacity="0.46" stroke-width="2"></line><text x="23" y="29" text-anchor="middle" font-family="'JetBrains Mono', ui-monospace, monospace" font-size="7" fill="#5e5e5e">a7f10…</text></g><g transform="translate(408 0)"><rect width="46" height="34" fill="#1a1a1a" stroke="#999999" stroke-width="0.75"></rect><text x="23" y="14" text-anchor="middle" font-family="'JetBrains Mono', ui-monospace, monospace" font-size="8" fill="#5e5e5e">e08</text><line x1="6" y1="20" x2="40" y2="20" stroke="#ffffff" stroke-opacity="0.5" stroke-width="2"></line><text x="23" y="29" text-anchor="middle" font-family="'JetBrains Mono', ui-monospace, monospace" font-size="7" fill="#5e5e5e">a8f11…</text></g><g transform="translate(459 0)"><rect width="46" height="34" fill="#1a1a1a" stroke="#999999" stroke-width="0.75"></rect><text x="23" y="14" text-anchor="middle" font-family="'JetBrains Mono', ui-monospace, monospace" font-size="8" fill="#5e5e5e">e09</text><line x1="6" y1="20" x2="40" y2="20" stroke="#ffffff" stroke-opacity="0.54" stroke-width="2"></line><text x="23" y="29" text-anchor="middle" font-family="'JetBrains Mono', ui-monospace, monospace" font-size="7" fill="#5e5e5e">a9f12…</text></g><g transform="translate(510 0)"><rect width="46" height="34" fill="#1a1a1a" stroke="#999999" stroke-width="0.75"></rect><text x="23" y="14" text-anchor="middle" font-family="'JetBrains Mono', ui-monospace, monospace" font-size="8" fill="#5e5e5e">e10</text><line x1="6" y1="20" x2="40" y2="20" stroke="#ffffff" stroke-opacity="0.5800000000000001" stroke-width="2"></line><text x="23" y="29" text-anchor="middle" font-family="'JetBrains Mono', ui-monospace, monospace" font-size="7" fill="#5e5e5e">aaf13…</text></g><g transform="translate(561 0)"><rect width="46" height="34" fill="#1a1a1a" stroke="#999999" stroke-width="0.75"></rect><text x="23" y="14" text-anchor="middle" font-family="'JetBrains Mono', ui-monospace, monospace" font-size="8" fill="#5e5e5e">e11</text><line x1="6" y1="20" x2="40" y2="20" stroke="#ffffff" stroke-opacity="0.62" stroke-width="2"></line><text x="23" y="29" text-anchor="middle" font-family="'JetBrains Mono', ui-monospace, monospace" font-size="7" fill="#5e5e5e">abf14…</text></g><g transform="translate(612 0)"><rect width="46" height="34" fill="#1a1a1a" stroke="#999999" stroke-width="0.75"></rect><text x="23" y="14" text-anchor="middle" font-family="'JetBrains Mono', ui-monospace, monospace" font-size="8" fill="#5e5e5e">e12</text><line x1="6" y1="20" x2="40" y2="20" stroke="#ffffff" stroke-opacity="0.6599999999999999" stroke-width="2"></line><text x="23" y="29" text-anchor="middle" font-family="'JetBrains Mono', ui-monospace, monospace" font-size="7" fill="#5e5e5e">acf15…</text></g><g transform="translate(663 0)"><rect width="46" height="34" fill="#1a1a1a" stroke="#999999" stroke-width="0.75"></rect><text x="23" y="14" text-anchor="middle" font-family="'JetBrains Mono', ui-monospace, monospace" font-size="8" fill="#5e5e5e">e13</text><line x1="6" y1="20" x2="40" y2="20" stroke="#ffffff" stroke-opacity="0.7" stroke-width="2"></line><text x="23" y="29" text-anchor="middle" font-family="'JetBrains Mono', ui-monospace, monospace" font-size="7" fill="#5e5e5e">adf16…</text></g><g transform="translate(714 0)"><rect width="46" height="34" fill="#1a1a1a" stroke="#999999" stroke-width="0.75"></rect><text x="23" y="14" text-anchor="middle" font-family="'JetBrains Mono', ui-monospace, monospace" font-size="8" fill="#5e5e5e">e14</text><line x1="6" y1="20" x2="40" y2="20" stroke="#ffffff" stroke-opacity="0.74" stroke-width="2"></line><text x="23" y="29" text-anchor="middle" font-family="'JetBrains Mono', ui-monospace, monospace" font-size="7" fill="#5e5e5e">aef17…</text></g><g transform="translate(765 0)"><rect width="46" height="34" fill="#1a1a1a" stroke="#999999" stroke-width="0.75"></rect><text x="23" y="14" text-anchor="middle" font-family="'JetBrains Mono', ui-monospace, monospace" font-size="8" fill="#5e5e5e">e15</text><line x1="6" y1="20" x2="40" y2="20" stroke="#ffffff" stroke-opacity="0.78" stroke-width="2"></line><text x="23" y="29" text-anchor="middle" font-family="'JetBrains Mono', ui-monospace, monospace" font-size="7" fill="#5e5e5e">aff18…</text></g><g transform="translate(816 0)"><rect width="46" height="34" fill="#1a1a1a" stroke="#999999" stroke-width="0.75"></rect><text x="23" y="14" text-anchor="middle" font-family="'JetBrains Mono', ui-monospace, monospace" font-size="8" fill="#5e5e5e">e16</text><line x1="6" y1="20" x2="40" y2="20" stroke="#ffffff" stroke-opacity="0.8200000000000001" stroke-width="2"></line><text x="23" y="29" text-anchor="middle" font-family="'JetBrains Mono', ui-monospace, monospace" font-size="7" fill="#5e5e5e">a10f19…</text></g><g transform="translate(867 0)"><rect width="46" height="34" fill="#1a1a1a" stroke="#999999" stroke-width="0.75"></rect><text x="23" y="14" text-anchor="middle" font-family="'JetBrains Mono', ui-monospace, monospace" font-size="8" fill="#5e5e5e">e17</text><line x1="6" y1="20" x2="40" y2="20" stroke="#ffffff" stroke-opacity="0.8600000000000001" stroke-width="2"></line><text x="23" y="29" text-anchor="middle" font-family="'JetBrains Mono', ui-monospace, monospace" font-size="7" fill="#5e5e5e">a11f20…</text></g><line x1="46" y1="17" x2="51" y2="17" stroke="#ffffff" stroke-opacity="0.5" stroke-width="0.75"></line><line x1="97" y1="17" x2="102" y2="17" stroke="#ffffff" stroke-opacity="0.5" stroke-width="0.75"></line><line x1="148" y1="17" x2="153" y2="17" stroke="#ffffff" stroke-opacity="0.5" stroke-width="0.75"></line><line x1="199" y1="17" x2="204" y2="17" stroke="#ffffff" stroke-opacity="0.5" stroke-width="0.75"></line><line x1="250" y1="17" x2="255" y2="17" stroke="#ffffff" stroke-opacity="0.5" stroke-width="0.75"></line><line x1="301" y1="17" x2="306" y2="17" stroke="#ffffff" stroke-opacity="0.5" stroke-width="0.75"></line><line x1="352" y1="17" x2="357" y2="17" stroke="#ffffff" stroke-opacity="0.5" stroke-width="0.75"></line><line x1="403" y1="17" x2="408" y2="17" stroke="#ffffff" stroke-opacity="0.5" stroke-width="0.75"></line><line x1="454" y1="17" x2="459" y2="17" stroke="#ffffff" stroke-opacity="0.5" stroke-width="0.75"></line><line x1="505" y1="17" x2="510" y2="17" stroke="#ffffff" stroke-opacity="0.5" stroke-width="0.75"></line><line x1="556" y1="17" x2="561" y2="17" stroke="#ffffff" stroke-opacity="0.5" stroke-width="0.75"></line><line x1="607" y1="17" x2="612" y2="17" stroke="#ffffff" stroke-opacity="0.5" stroke-width="0.75"></line><line x1="658" y1="17" x2="663" y2="17" stroke="#ffffff" stroke-opacity="0.5" stroke-width="0.75"></line><line x1="709" y1="17" x2="714" y2="17" stroke="#ffffff" stroke-opacity="0.5" stroke-width="0.75"></line><line x1="760" y1="17" x2="765" y2="17" stroke="#ffffff" stroke-opacity="0.5" stroke-width="0.75"></line><line x1="811" y1="17" x2="816" y2="17" stroke="#ffffff" stroke-opacity="0.5" stroke-width="0.75"></line><line x1="862" y1="17" x2="867" y2="17" stroke="#ffffff" stroke-opacity="0.5" stroke-width="0.75"></line></g><g><rect x="14" y="50" width="46" height="34" fill="none" stroke="#ffffff" stroke-width="1.5"><animate attributeName="x" values="14;65;116;167;218;269;320;371;422;473;524;575;626;677;728;779;830;881" dur="6s" repeatCount="indefinite"></animate></rect><text x="60" y="98" font-family="'JetBrains Mono', ui-monospace, monospace" font-size="9" fill="#ffffff">▲ head</text></g></g><line x1="250" y1="458" x2="250" y2="500" stroke="#5e5e5e" stroke-width="1" marker-end="url(#arr)"></line><line x1="510" y1="458" x2="510" y2="500" stroke="#5e5e5e" stroke-width="1" marker-end="url(#arr)"></line><line x1="770" y1="458" x2="770" y2="500" stroke="#5e5e5e" stroke-width="1" marker-end="url(#arr)"></line><g><rect x="110" y="500" width="290" height="92" fill="#111111" stroke="#999999" stroke-width="1" rx="2"></rect><g transform="translate(110 500)" stroke="#999999" stroke-width="1"><line x1="0" y1="0" x2="6" y2="0"></line><line x1="0" y1="0" x2="0" y2="6"></line></g><g transform="translate(400 500)" stroke="#999999" stroke-width="1"><line x1="-6" y1="0" x2="0" y2="0"></line><line x1="0" y1="0" x2="0" y2="6"></line></g><g transform="translate(110 592)" stroke="#999999" stroke-width="1"><line x1="0" y1="0" x2="6" y2="0"></line><line x1="0" y1="-6" x2="0" y2="0"></line></g><g transform="translate(400 592)" stroke="#999999" stroke-width="1"><line x1="-6" y1="0" x2="0" y2="0"></line><line x1="0" y1="-6" x2="0" y2="0"></line></g><text x="255" y="544" text-anchor="middle" font-family="'JetBrains Mono', ui-monospace, monospace" font-size="13" font-weight="600" fill="#e8e8e8">KV view</text><text x="255" y="561" text-anchor="middle" font-family="'JetBrains Mono', ui-monospace, monospace" font-size="10.5" fill="#999999">latest value · UPSERT on append</text></g><g><rect x="420" y="500" width="200" height="92" fill="#111111" stroke="#999999" stroke-width="1" rx="2"></rect><g transform="translate(420 500)" stroke="#999999" stroke-width="1"><line x1="0" y1="0" x2="6" y2="0"></line><line x1="0" y1="0" x2="0" y2="6"></line></g><g transform="translate(620 500)" stroke="#999999" stroke-width="1"><line x1="-6" y1="0" x2="0" y2="0"></line><line x1="0" y1="0" x2="0" y2="6"></line></g><g transform="translate(420 592)" stroke="#999999" stroke-width="1"><line x1="0" y1="0" x2="6" y2="0"></line><line x1="0" y1="-6" x2="0" y2="0"></line></g><g transform="translate(620 592)" stroke="#999999" stroke-width="1"><line x1="-6" y1="0" x2="0" y2="0"></line><line x1="0" y1="-6" x2="0" y2="0"></line></g><text x="520" y="544" text-anchor="middle" font-family="'JetBrains Mono', ui-monospace, monospace" font-size="13" font-weight="600" fill="#e8e8e8">FTS view</text><text x="520" y="561" text-anchor="middle" font-family="'JetBrains Mono', ui-monospace, monospace" font-size="10.5" fill="#999999">SQLite FTS5</text></g><g><rect x="640" y="500" width="290" height="92" fill="#111111" stroke="#999999" stroke-width="1" rx="2"></rect><g transform="translate(640 500)" stroke="#999999" stroke-width="1"><line x1="0" y1="0" x2="6" y2="0"></line><line x1="0" y1="0" x2="0" y2="6"></line></g><g transform="translate(930 500)" stroke="#999999" stroke-width="1"><line x1="-6" y1="0" x2="0" y2="0"></line><line x1="0" y1="0" x2="0" y2="6"></line></g><g transform="translate(640 592)" stroke="#999999" stroke-width="1"><line x1="0" y1="0" x2="6" y2="0"></line><line x1="0" y1="-6" x2="0" y2="0"></line></g><g transform="translate(930 592)" stroke="#999999" stroke-width="1"><line x1="-6" y1="0" x2="0" y2="0"></line><line x1="0" y1="-6" x2="0" y2="0"></line></g><text x="785" y="544" text-anchor="middle" font-family="'JetBrains Mono', ui-monospace, monospace" font-size="13" font-weight="600" fill="#e8e8e8">vector view</text><text x="785" y="561" text-anchor="middle" font-family="'JetBrains Mono', ui-monospace, monospace" font-size="10.5" fill="#999999">HNSW · in-mem · embeddings supplied</text></g><g transform="translate(125 565)"><g transform="translate(0 0)"><rect width="14" height="4" fill="#ffffff" opacity="0.5"></rect><rect x="18" width="38" height="4" fill="#999999" opacity="0.5"></rect></g><g transform="translate(0 7)"><rect width="14" height="4" fill="#ffffff" opacity="0.5"></rect><rect x="18" width="38" height="4" fill="#999999" opacity="0.5"></rect></g><g transform="translate(0 14)"><rect width="14" height="4" fill="#ffffff" opacity="0.5"></rect><rect x="18" width="38" height="4" fill="#999999" opacity="0.5"></rect></g></g><g transform="translate(435 568)" stroke="#ffffff" stroke-width="0.75" fill="none"><circle cx="6" cy="6" r="5"></circle><line x1="10" y1="10" x2="15" y2="15"></line></g><g transform="translate(655 565)"><circle cx="0" cy="0" r="1.5" fill="#ffffff" opacity="0.4"></circle><circle cx="10" cy="3" r="1.5" fill="#ffffff" opacity="0.48000000000000004"></circle><circle cx="6" cy="8" r="1.5" fill="#ffffff" opacity="0.56"></circle><circle cx="16" cy="1" r="1.5" fill="#ffffff" opacity="0.64"></circle><circle cx="20" cy="8" r="1.5" fill="#ffffff" opacity="0.72"></circle><circle cx="2" cy="12" r="1.5" fill="#ffffff" opacity="0.8"></circle><circle cx="14" cy="11" r="1.5" fill="#ffffff" opacity="0.88"></circle></g><g><rect x="1075" y="140" width="155" height="452" fill="none" stroke="#ffffff33" stroke-width="1" stroke-dasharray="3 4" rx="2"></rect><text x="1153" y="132" text-anchor="middle" font-family="'JetBrains Mono', ui-monospace, monospace" font-size="9" fill="#5e5e5e" style="letter-spacing: 0.12em;">06 · ADAPTERS</text><g transform="translate(1090 160)"><rect width="125" height="48" fill="#111111" stroke="#999999" stroke-width="1" rx="2"></rect><text x="10" y="20" font-family="'JetBrains Mono', ui-monospace, monospace" font-size="12" font-weight="600" fill="#e8e8e8">fs</text><text x="10" y="35" font-family="'JetBrains Mono', ui-monospace, monospace" font-size="10" fill="#999999">watcher</text><circle cx="115" cy="11" r="2.5" fill="#ffffff"><animate attributeName="opacity" values="1;.3;1" dur="1.6s" repeatCount="indefinite"></animate></circle></g><g transform="translate(1090 224)"><rect width="125" height="48" fill="#111111" stroke="#999999" stroke-width="1" rx="2"></rect><text x="10" y="20" font-family="'JetBrains Mono', ui-monospace, monospace" font-size="12" font-weight="600" fill="#e8e8e8">github</text><text x="10" y="35" font-family="'JetBrains Mono', ui-monospace, monospace" font-size="10" fill="#999999">stub</text><circle cx="115" cy="11" r="2.5" fill="#5e5e5e"></circle></g><g transform="translate(1090 288)"><rect width="125" height="48" fill="#111111" stroke="#999999" stroke-width="1" rx="2"></rect><text x="10" y="20" font-family="'JetBrains Mono', ui-monospace, monospace" font-size="12" font-weight="600" fill="#e8e8e8">gmail</text><text x="10" y="35" font-family="'JetBrains Mono', ui-monospace, monospace" font-size="10" fill="#999999">stub</text><circle cx="115" cy="11" r="2.5" fill="#5e5e5e"></circle></g><g transform="translate(1090 352)"><rect width="125" height="48" fill="#111111" stroke="#999999" stroke-width="1" rx="2"></rect><text x="10" y="20" font-family="'JetBrains Mono', ui-monospace, monospace" font-size="12" font-weight="600" fill="#e8e8e8">your</text><text x="10" y="35" font-family="'JetBrains Mono', ui-monospace, monospace" font-size="10" fill="#999999">EventSink trait</text><circle cx="115" cy="11" r="2.5" fill="#5e5e5e"></circle></g><text x="1090" y="460" font-family="'JetBrains Mono', ui-monospace, monospace" font-size="9" fill="#5e5e5e" style="letter-spacing: 0.1em;">events  ──▶  log</text></g><path d="M 1085 184 C 1020 184, 1020 408, 1055 408" fill="none" stroke="#5e5e5e" stroke-width="1" stroke-dasharray="2 4"></path><circle r="2.5" fill="#ffffff"><animateMotion dur="4s" repeatCount="indefinite" begin="0s" path="M 1085 184 C 1020 184, 1020 408, 1055 408"></animateMotion></circle><path d="M 1085 248 C 1020 248, 1020 408, 1055 408" fill="none" stroke="#5e5e5e" stroke-width="1" stroke-dasharray="2 4"></path><circle r="2.5" fill="#ffffff"><animateMotion dur="4s" repeatCount="indefinite" begin="1s" path="M 1085 248 C 1020 248, 1020 408, 1055 408"></animateMotion></circle><path d="M 185 92 L 185 140 L 275 140 L 275 270 L 580 270 L 580 358" fill="none" stroke="#5e5e5e" stroke-width="1" stroke-dasharray="2 4"></path><circle r="2.5" fill="#ffffff"><animateMotion dur="3.2s" repeatCount="indefinite" begin="0s" path="M 185 92 L 185 140 L 275 140 L 275 270 L 580 270 L 580 358"></animateMotion></circle><path d="M 545 92 L 545 140 L 620 140 L 620 270 L 580 270 L 580 358" fill="none" stroke="#5e5e5e" stroke-width="1" stroke-dasharray="2 4"></path><circle r="2.5" fill="#ffffff"><animateMotion dur="3.2s" repeatCount="indefinite" begin="1.1s" path="M 545 92 L 545 140 L 620 140 L 620 270 L 580 270 L 580 358"></animateMotion></circle><path d="M 905 92 L 905 140 L 925 140 L 925 270 L 620 270 L 600 270 L 580 270 L 580 358" fill="none" stroke="#5e5e5e" stroke-width="1" stroke-dasharray="2 4"></path><circle r="2.5" fill="#ffffff"><animateMotion dur="3.6s" repeatCount="indefinite" begin="2.2s" path="M 905 92 L 905 140 L 925 140 L 925 270 L 620 270 L 600 270 L 580 270 L 580 358"></animateMotion></circle><g transform="translate(110 600)"><circle r="2.5" fill="#ffffff"></circle><text x="10" y="3" font-family="'JetBrains Mono', ui-monospace, monospace" font-size="10" fill="#999999">request packet</text><line x1="140" y1="0" x2="170" y2="0" stroke="#ffffff" stroke-width="1.25"></line><text x="178" y="3" font-family="'JetBrains Mono', ui-monospace, monospace" font-size="10" fill="#999999">authorized path</text><line x1="320" y1="0" x2="350" y2="0" stroke="#5e5e5e" stroke-dasharray="2 3" stroke-width="1"></line><text x="358" y="3" font-family="'JetBrains Mono', ui-monospace, monospace" font-size="10" fill="#999999">data flow</text></g></svg>
